# This file uses centimeters as units for non-parametric coordinates.

mtllib Shield.mtl
g default1
v -0.214220 2.368540 0.375911
v 0.241604 2.366982 0.375911
v -0.829543 3.980450 0.375911
v 0.846752 3.968394 0.375911
v -0.816192 3.969980 0.267782
v 0.833480 3.958116 0.267782
v -0.210641 2.383670 0.267782
v 0.237943 2.382137 0.267782
v 0.006612 4.442866 0.375911
v 0.006684 4.425052 0.267782
v -0.000699 2.217396 0.267782
v -0.000890 2.199582 0.375911
v -0.789737 3.322875 0.375911
v -0.777018 3.322849 0.267782
v 0.793663 3.327759 0.267782
v 0.806292 3.327864 0.375911
v -0.659571 2.971599 0.375911
v -0.648919 2.977152 0.267782
v 0.630109 2.902343 0.267782
v 0.640099 2.895583 0.375911
v -0.338201 2.500149 0.375911
v -0.332653 2.513190 0.267782
v 0.381491 2.531245 0.267782
v 0.387469 2.518496 0.375911
v 0.011454 2.539600 0.464203
v 0.009391 3.991200 0.464203
v -0.843753 3.828844 0.375911
v -0.830176 3.820782 0.267782
v 0.852384 3.687920 0.267782
v 0.865961 3.693838 0.375911
v -0.455314 4.070074 0.375911
v -0.447906 4.058180 0.267782
v -0.125613 2.304938 0.267782
v -0.127819 2.288537 0.375911
v -0.224253 2.572691 0.464203
v -0.511478 2.966571 0.464203
v -0.632233 3.326258 0.464203
v -0.559906 3.827622 0.464203
v -0.205584 4.205455 0.375911
v -0.202142 4.191411 0.267782
v -0.064376 2.260948 0.267782
v -0.065595 2.243836 0.375911
v -0.109391 2.415066 0.464203
v -0.323554 3.933589 0.464203
v 0.173796 4.220582 0.375911
v 0.171212 4.206298 0.267782
v 0.052652 2.244565 0.267782
v 0.053322 2.227189 0.375911
v 0.128835 2.423893 0.464203
v 0.337976 3.951376 0.464203
v 0.452108 4.064334 0.375911
v 0.445104 4.052532 0.267782
v 0.108768 2.281701 0.267782
v 0.110344 2.264925 0.375911
v 0.230968 2.547417 0.464203
v 0.473366 2.880311 0.464203
v 0.668597 3.330669 0.464203
v 0.592763 3.830691 0.464203
v -0.572427 3.704645 0.464203
v -0.698866 3.710152 0.464203
v -0.841006 3.694384 0.375911
v -0.827472 3.688457 0.267782
v 0.824843 3.518998 0.267782
v 0.837975 3.522190 0.375911
v 0.711872 3.708211 0.464203
v 0.595932 3.705387 0.464203
v -0.088121 4.131989 0.464203
v 0.114196 4.126918 0.464203
v 0.594334 3.705077 0.430862
v 0.011569 2.545790 0.431390
v 0.125786 2.429925 0.431792
v -0.214694 2.579660 0.432946
v -0.504106 2.970518 0.432073
v -0.105239 2.421570 0.432151
v -0.627910 3.326447 0.431083
v -0.695406 3.709605 0.430966
v -0.570697 3.704372 0.430874
v 0.223385 2.553141 0.432161
v 0.467176 2.883736 0.431654
v 0.664600 3.330922 0.431044
v 0.708675 3.707591 0.430941
v -0.322841 3.932142 0.430860
v 0.009399 3.988306 0.430938
v -0.086695 4.129094 0.430938
v -0.559906 3.827622 0.430782
v 0.337271 3.949930 0.430860
v 0.112786 4.124024 0.430938
v 0.592763 3.830691 0.430782
vt 0.389586 0.181272
vt 0.379331 0.165261
vt 0.424539 0.187512
vt 0.407527 0.205563
vt 0.155757 0.384126
vt 0.110310 0.338988
vt 0.121701 0.325677
vt 0.160735 0.370513
vt 0.353038 0.188369
vt 0.357470 0.169802
vt 0.373555 0.169328
vt 0.370025 0.191464
vt 0.328329 0.109216
vt 0.321393 0.124351
vt 0.291336 0.113020
vt 0.295634 0.096969
vt 0.359439 0.223707
vt 0.344290 0.216744
vt 0.033554 0.278148
vt 0.049450 0.236756
vt 0.066373 0.242887
vt 0.047770 0.273901
vt 0.370070 0.141473
vt 0.358005 0.147271
vt 0.352233 0.142426
vt 0.362881 0.131439
vt 0.421070 0.147759
vt 0.375007 0.133546
vt 0.409995 0.126676
vt 0.251428 0.328388
vt 0.261233 0.341822
vt 0.207583 0.372352
vt 0.200493 0.357142
vt 0.153652 0.088079
vt 0.156572 0.104531
vt 0.128966 0.112273
vt 0.123768 0.096233
vt 0.532365 0.288717
vt 0.536051 0.261233
vt 0.593961 0.274578
vt 0.589055 0.299891
vt 0.294743 0.289565
vt 0.307465 0.300283
vt 0.225066 0.083967
vt 0.224246 0.100620
vt 0.477779 0.263398
vt 0.481496 0.237074
vt 0.609605 0.302163
vt 0.617595 0.256322
vt 0.660126 0.246096
vt 0.633655 0.303719
vt 0.181386 0.365138
vt 0.185106 0.381562
vt 0.097689 0.104782
vt 0.105010 0.119304
vt 0.073598 0.138008
vt 0.059876 0.129901
vt 0.720934 0.174470
vt 0.671676 0.151438
vt 0.651103 0.112672
vt 0.692016 0.142356
vt 0.074069 0.311250
vt 0.085081 0.298523
vt 0.358558 0.158085
vt 0.374284 0.153955
vt 0.404162 0.164964
vt 0.638391 0.221318
vt 0.683454 0.206304
vt 0.668964 0.185201
vt 0.061119 0.193166
vt 0.077561 0.197394
vt 0.343628 0.136727
vt 0.353020 0.123338
vt 0.381350 0.125163
vt 0.429746 0.111730
vt 0.632950 0.071536
vt 0.672909 0.093816
vt 0.398889 0.105942
vt 0.423662 0.084909
vt 0.482024 0.079620
vt 0.484068 0.050630
vt 0.553283 0.054183
vt 0.553490 0.029168
vt 0.584093 0.027309
vt 0.611436 0.052990
vt 0.610629 0.025579
vt 0.653878 0.029380
vt 0.614453 0.069761
vt 0.599285 0.256517
vt 0.652891 0.167189
vt 0.414278 0.127957
vt 0.426428 0.148681
vt 0.428465 0.183913
vt 0.484396 0.232859
vt 0.408957 0.164768
vt 0.537542 0.256199
vt 0.592344 0.269980
vt 0.596426 0.252503
vt 0.433019 0.115912
vt 0.484293 0.084293
vt 0.554146 0.059267
vt 0.611274 0.073462
vt 0.609163 0.057350
vt 0.664185 0.184639
vt 0.647425 0.166785
vt 0.633901 0.218395
vt 0.614779 0.252136
vt 0.666863 0.151124
vt 0.646159 0.114872
vt 0.629844 0.075321
vn -0.384523 -0.382287 0.840237
vn -0.477997 -0.429393 0.766251
vn -0.454851 -0.344465 0.821252
vn -0.450924 -0.340471 0.825074
vn -0.523811 0.839240 -0.145941
vn -0.334710 0.933906 -0.125653
vn -0.338404 0.932560 -0.125758
vn -0.520255 0.841487 -0.145719
vn -0.705011 -0.698778 -0.121114
vn -0.639707 -0.757884 -0.128011
vn -0.635125 -0.761647 -0.128489
vn -0.702832 -0.700931 -0.121343
vn 0.667459 -0.733999 -0.125475
vn 0.671972 -0.729941 -0.125059
vn 0.794897 -0.595899 -0.114203
vn 0.791584 -0.600231 -0.114531
vn -0.705011 -0.698778 -0.121114
vn -0.702832 -0.700931 -0.121343
vn -0.797971 -0.592131 -0.112352
vn -0.800644 -0.588567 -0.112060
vn -0.043263 0.985771 -0.162433
vn 0.649878 0.751321 -0.114779
vn 0.636283 0.762692 -0.115956
vn -0.035945 0.986058 -0.162476
vn -0.133944 -0.977770 -0.161322
vn -0.139406 -0.977025 -0.161209
vn 0.503788 -0.852391 -0.140098
vn 0.499167 -0.855040 -0.140495
vn -0.014511 -0.303764 0.952637
vn -0.010336 -0.304194 0.952554
vn -0.055852 -0.324125 0.944364
vn 0.130609 -0.388838 0.912001
vn -0.963192 -0.243800 -0.113240
vn -0.964139 -0.239972 -0.113352
vn -0.987608 -0.103551 -0.117932
vn -0.987248 -0.107196 -0.117687
vn 0.948263 -0.297648 -0.110466
vn 0.947255 -0.300884 -0.110345
vn 0.980493 -0.159860 -0.114364
vn 0.980493 -0.159860 -0.114364
vn -0.499159 -0.119087 0.858288
vn -0.498024 -0.131179 0.857184
vn -0.447064 0.031810 0.893936
vn -0.470956 0.006398 0.882134
vn -0.871307 -0.478162 -0.110387
vn -0.871276 -0.478218 -0.110387
vn -0.964139 -0.239972 -0.113352
vn -0.963192 -0.243800 -0.113240
vn 0.882313 -0.457599 -0.110124
vn 0.883148 -0.455990 -0.110100
vn 0.947255 -0.300884 -0.110345
vn 0.948263 -0.297648 -0.110466
vn -0.484403 -0.238703 0.841650
vn -0.477312 -0.280826 0.832652
vn -0.498024 -0.131179 0.857184
vn -0.499159 -0.119087 0.858288
vn -0.800644 -0.588567 -0.112060
vn -0.797971 -0.592131 -0.112352
vn -0.871276 -0.478218 -0.110387
vn -0.871307 -0.478162 -0.110387
vn 0.791584 -0.600231 -0.114531
vn 0.794897 -0.595899 -0.114203
vn 0.883148 -0.455990 -0.110100
vn 0.882313 -0.457599 -0.110124
vn -0.450924 -0.340471 0.825074
vn -0.454851 -0.344465 0.821252
vn -0.477312 -0.280826 0.832652
vn -0.484403 -0.238703 0.841650
vn -0.233362 0.245735 0.940828
vn -0.191454 0.278965 0.941023
vn -0.185070 0.351364 0.917765
vn -0.162840 0.262212 0.951172
vn -0.991174 0.037239 -0.127231
vn -0.990932 0.042192 -0.127569
vn -0.523811 0.839240 -0.145941
vn -0.520255 0.841487 -0.145719
vn 0.992195 -0.015370 -0.123742
vn 0.992091 -0.023660 -0.123275
vn 0.657763 0.737958 -0.150885
vn 0.661151 0.734898 -0.151010
vn -0.050344 0.382204 0.922706
vn 0.222500 0.377741 0.898780
vn 0.256835 0.445091 0.857863
vn 0.405556 0.445526 0.798142
vn -0.334710 0.933906 -0.125653
vn -0.628057 0.768883 -0.119849
vn -0.618733 0.776302 -0.120516
vn -0.338404 0.932560 -0.125758
vn -0.635125 -0.761647 -0.128489
vn -0.639707 -0.757884 -0.128011
vn -0.569157 -0.811109 -0.134769
vn -0.568188 -0.811773 -0.134863
vn -0.454851 -0.344465 0.821252
vn -0.477997 -0.429393 0.766251
vn 0.012566 -0.353692 0.935278
vn -0.167569 -0.397855 0.902016
vn -0.185070 0.351364 0.917765
vn -0.191454 0.278965 0.941023
vn -0.228368 0.394082 0.890251
vn -0.342037 0.394356 0.852933
vn -0.628057 0.768883 -0.119849
vn -0.043263 0.985771 -0.162433
vn -0.035945 0.986058 -0.162476
vn -0.618733 0.776302 -0.120516
vn -0.568188 -0.811773 -0.134863
vn -0.569157 -0.811109 -0.134769
vn -0.139406 -0.977025 -0.161209
vn -0.133944 -0.977770 -0.161322
vn -0.167569 -0.397855 0.902016
vn 0.012566 -0.353692 0.935278
vn -0.010336 -0.304194 0.952554
vn -0.014511 -0.303764 0.952637
vn -0.342037 0.394356 0.852933
vn -0.228368 0.394082 0.890251
vn -0.205407 0.351249 0.913473
vn -0.050344 0.382204 0.922706
vn 0.649878 0.751321 -0.114779
vn 0.346631 0.929778 -0.123938
vn 0.349823 0.928571 -0.124014
vn 0.636283 0.762692 -0.115956
vn 0.499167 -0.855040 -0.140495
vn 0.503788 -0.852391 -0.140098
vn 0.592117 -0.794972 -0.131972
vn 0.589614 -0.796790 -0.132217
vn 0.130609 -0.388838 0.912001
vn -0.055852 -0.324125 0.944364
vn 0.439247 -0.445826 0.779937
vn 0.416672 -0.347922 0.839842
vn 0.405556 0.445526 0.798142
vn 0.256835 0.445091 0.857863
vn 0.220453 0.254487 0.941614
vn 0.223768 0.375479 0.899413
vn 0.346631 0.929778 -0.123938
vn 0.661151 0.734898 -0.151010
vn 0.657763 0.737958 -0.150885
vn 0.349823 0.928571 -0.124014
vn 0.589614 -0.796790 -0.132217
vn 0.592117 -0.794972 -0.131972
vn 0.671972 -0.729941 -0.125059
vn 0.667459 -0.733999 -0.125475
vn 0.416672 -0.347922 0.839842
vn 0.439247 -0.445826 0.779937
vn 0.359553 -0.392950 0.846352
vn 0.429092 -0.327260 0.841891
vn 0.465272 -0.272074 0.842317
vn 0.416672 -0.347922 0.839842
vn 0.429092 -0.327260 0.841891
vn 0.482185 -0.237048 0.843389
vn 0.506153 -0.159669 0.847535
vn 0.465272 -0.272074 0.842317
vn 0.482185 -0.237048 0.843389
vn 0.509132 -0.143158 0.848699
vn 0.519525 -0.032489 0.853837
vn 0.488206 0.073933 0.869591
vn 0.506153 -0.159669 0.847535
vn 0.509132 -0.143158 0.848699
vn 0.223768 0.375479 0.899413
vn 0.220453 0.254487 0.941614
vn 0.317480 0.205386 0.925755
vn 0.205928 0.230026 0.951147
vn -0.470956 0.006398 0.882134
vn -0.447064 0.031810 0.893936
vn -0.191454 0.278965 0.941023
vn -0.233362 0.245735 0.940828
vn -0.987248 -0.107196 -0.117687
vn -0.987608 -0.103551 -0.117932
vn -0.990932 0.042192 -0.127569
vn -0.991174 0.037239 -0.127231
vn 0.980493 -0.159860 -0.114364
vn 0.980493 -0.159860 -0.114364
vn 0.992091 -0.023660 -0.123275
vn 0.992195 -0.015370 -0.123742
vn 0.317480 0.205386 0.925755
vn 0.220453 0.254487 0.941614
vn 0.488206 0.073933 0.869591
vn 0.519525 -0.032489 0.853837
vn 0.220453 0.254487 0.941614
vn 0.000000 0.000000 1.000000
vn 0.488206 0.073933 0.869591
vn -0.191454 0.278965 0.941023
vn -0.447064 0.031810 0.893936
vn 0.000000 0.000000 1.000000
vn -0.050344 0.382204 0.922706
vn -0.205407 0.351249 0.913473
vn -0.007330 0.191802 0.981406
vn -0.050344 0.382204 0.922706
vn -0.007330 0.191802 0.981406
vn 0.222500 0.377741 0.898780
vn 0.703422 0.703674 0.100201
vn 0.703422 0.703674 0.100201
vn 0.703422 0.703674 0.100201
vn 0.703422 0.703674 0.100201
vn 0.848888 0.462904 0.255165
vn 0.771748 0.561747 0.298068
vn 0.771742 0.561752 0.298076
vn 0.849265 0.462353 0.254907
vn 0.771748 0.561747 0.298068
vn 0.781198 0.554322 0.287152
vn 0.781198 0.554322 0.287152
vn 0.771742 0.561752 0.298076
vn 0.958441 0.242915 0.149611
vn 0.848888 0.462904 0.255165
vn 0.849265 0.462353 0.254907
vn 0.957632 0.245346 0.150819
vn 0.978644 0.171147 0.113864
vn 0.958441 0.242915 0.149611
vn 0.957632 0.245346 0.150819
vn 0.978644 0.171147 0.113864
vn -0.042722 -0.999047 0.008978
vn -0.042722 -0.999047 0.008978
vn -0.042722 -0.999047 0.008978
vn -0.042722 -0.999047 0.008978
vn -0.720162 0.688290 0.087320
vn -0.720162 0.688290 0.087320
vn -0.720162 0.688290 0.087320
vn -0.720162 0.688290 0.087320
vn -0.755460 0.611177 0.236100
vn -0.774392 0.583520 0.244585
vn -0.774352 0.583580 0.244567
vn -0.755460 0.611177 0.236100
vn -0.774392 0.583520 0.244585
vn -0.853812 0.479542 0.202597
vn -0.853582 0.479881 0.202761
vn -0.774352 0.583580 0.244567
vn -0.853812 0.479542 0.202597
vn -0.951771 0.273541 0.138948
vn -0.950457 0.277665 0.139762
vn -0.853582 0.479881 0.202761
vn 0.023161 -0.999656 0.012286
vn 0.023161 -0.999656 0.012286
vn 0.023161 -0.999656 0.012286
vn 0.023161 -0.999656 0.012286
vn -0.951771 0.273541 0.138948
vn -0.987725 0.114411 0.106348
vn -0.987725 0.114411 0.106348
vn -0.950457 0.277665 0.139762
vn -0.823600 -0.566293 0.031530
vn -0.823600 -0.566293 0.031530
vn -0.823600 -0.566293 0.031530
vn -0.823600 -0.566293 0.031530
vn 0.640852 -0.764428 0.070410
vn 0.539265 -0.840661 0.049825
vn 0.538531 -0.841140 0.049680
vn 0.640852 -0.764428 0.070410
vn 0.995208 -0.094214 0.026182
vn 0.995208 -0.094214 0.026182
vn 0.995208 -0.094214 0.026182
vn 0.995208 -0.094214 0.026182
vn 0.539265 -0.840661 0.049825
vn 0.406145 -0.913490 0.024143
vn 0.406144 -0.913490 0.024143
vn 0.538531 -0.841140 0.049680
vn -0.523469 -0.850698 0.047890
vn -0.613473 -0.786541 0.070734
vn -0.613473 -0.786541 0.070734
vn -0.522890 -0.851062 0.047747
vn 0.792958 -0.608200 0.036197
vn 0.792958 -0.608200 0.036197
vn 0.792958 -0.608200 0.036197
vn 0.792958 -0.608200 0.036197
vn -0.425370 -0.904699 0.024098
vn -0.523469 -0.850698 0.047890
vn -0.522890 -0.851062 0.047747
vn -0.425370 -0.904699 0.024098
vn -0.999533 -0.018875 0.024018
vn -0.999533 -0.018875 0.024018
vn -0.999533 -0.018875 0.024018
vn -0.999533 -0.018875 0.024018
s off
g poigné1 polySurface2 Contour
usemtl lambert2SG
f 1/1/1 34/2/2 35/3/3 21/4/4
f 3/5/5 31/6/6 32/7/7 5/8/8
f 7/9/9 33/10/10 34/11/11 1/12/12
f 2/13/13 8/14/14 23/15/15 24/16/16
f 7/9/17 1/12/18 21/17/19 22/18/20
f 9/19/21 45/20/22 46/21/23 10/22/24
f 12/23/25 11/24/26 47/25/27 48/26/28
f 25/27/29 12/23/30 48/28/31 49/29/32
f 14/30/33 13/31/34 61/32/35 62/33/36
f 16/34/37 15/35/38 63/36/39 64/37/40
f 13/38/41 37/39/42 60/40/43 61/41/44
f 18/42/45 17/43/46 13/31/47 14/30/48
f 20/44/49 19/45/50 15/35/51 16/34/52
f 17/46/53 36/47/54 37/39/55 13/38/56
f 22/18/57 21/17/58 17/43/59 18/42/60
f 24/16/61 23/15/62 19/45/63 20/44/64
f 21/4/65 35/3/66 36/47/67 17/46/68
f 27/48/69 38/49/70 31/50/71 3/51/72
f 28/52/73 27/53/74 3/5/75 5/8/76
f 30/54/77 29/55/78 6/56/79 4/57/80
f 9/58/81 68/59/82 50/60/83 45/61/84
f 31/6/85 39/62/86 40/63/87 32/7/88
f 34/11/89 33/10/90 41/64/91 42/65/92
f 35/3/93 34/2/94 42/65/95 43/66/96
f 31/50/97 38/49/98 44/67/99 39/68/100
f 39/62/101 9/19/102 10/22/103 40/63/104
f 42/65/105 41/64/106 11/24/107 12/23/108
f 43/66/109 42/65/110 12/23/111 25/27/112
f 39/68/113 44/67/114 67/69/115 9/58/116
f 45/20/117 51/70/118 52/71/119 46/21/120
f 48/26/121 47/25/122 53/72/123 54/73/124
f 49/29/125 48/28/126 54/74/127 55/75/128
f 45/61/129 50/60/130 58/76/131 51/77/132
f 51/70/133 4/57/134 6/56/135 52/71/136
f 54/73/137 53/72/138 8/14/139 2/13/140
f 55/75/141 54/74/142 2/78/143 24/79/144
f 56/80/145 55/75/146 24/79/147 20/81/148
f 57/82/149 56/80/150 20/81/151 16/83/152
f 64/84/153 65/85/154 57/82/155 16/83/156
f 51/77/157 58/76/158 30/86/159 4/87/160
f 61/41/161 60/40/162 38/49/163 27/48/164
f 62/33/165 61/32/166 27/53/167 28/52/168
f 64/37/169 63/36/170 29/55/171 30/54/172
f 30/86/173 58/76/174 65/85/175 64/84/176
f 58/76/177 66/88/178 65/85/179
f 38/49/180 60/40/181 59/89/182
f 9/58/183 67/69/184 26/90/185
f 9/58/186 26/90/187 68/59/188
f 25/27/189 49/29/190 71/91/191 70/92/192
f 36/47/193 35/3/194 72/93/195 73/94/196
f 35/3/197 43/66/198 74/95/199 72/93/200
f 37/39/201 36/47/202 73/94/203 75/96/204
f 60/40/205 37/39/206 75/96/207 76/97/208
f 59/89/209 60/40/210 76/97/211 77/98/212
f 43/66/213 25/27/214 70/92/215 74/95/216
f 49/29/217 55/75/218 78/99/219 71/91/220
f 55/75/221 56/80/222 79/100/223 78/99/224
f 56/80/225 57/82/226 80/101/227 79/100/228
f 65/85/229 66/88/230 69/102/231 81/103/232
f 57/82/233 65/85/234 81/103/235 80/101/236
f 26/90/237 67/69/238 84/104/239 83/105/240
f 67/69/241 44/67/242 82/106/243 84/104/244
f 38/49/245 59/89/246 77/98/247 85/107/248
f 44/67/249 38/49/250 85/107/251 82/106/252
f 50/60/253 68/59/254 87/108/255 86/109/256
f 68/59/257 26/90/258 83/105/259 87/108/260
f 58/76/261 50/60/262 86/109/263 88/110/264
f 66/88/265 58/76/266 88/110/267 69/102/268
g default1
v 0.014245 3.837561 0.482813
v 0.231394 3.384625 0.482843
v 0.005131 2.651101 0.482955
v 0.175644 3.098517 0.483062
v -0.199501 3.107498 0.483242
v -0.250581 3.371825 0.482851
v 0.005134 2.651107 0.502685
v 0.014248 3.837567 0.502543
v 0.175638 3.098522 0.502793
v 0.231387 3.384630 0.502574
v -0.199487 3.107505 0.502973
v -0.250567 3.371832 0.502582
vt 0.352248 0.512167
vt 0.498047 0.287157
vt 0.474263 0.392037
vt 0.448119 0.454089
vt 0.361120 0.391936
vt 0.403345 0.348416
vt 0.544563 0.316478
vt 0.477777 0.394615
vt 0.545447 0.312499
vt 0.452333 0.454124
vt 0.474708 0.549556
vt 0.473786 0.553565
vt 0.551570 0.481839
vt 0.560798 0.420162
vt 0.565203 0.419833
vt 0.554955 0.484487
vn 0.000242 0.000333 1.000000
vn 0.000260 0.000335 1.000000
vn -0.000353 0.000261 1.000000
vn -0.000353 0.000261 1.000000
vn 0.000687 0.000387 1.000000
vn 0.000687 0.000387 1.000000
vn 0.000260 0.000335 1.000000
vn 0.000242 0.000333 1.000000
vn 0.934443 -0.356113 0.000190
vn 0.955576 -0.294746 0.000269
vn 0.955572 -0.294756 0.000269
vn 0.934443 -0.356113 0.000190
vn 0.955576 -0.294746 0.000269
vn 0.981540 -0.191258 0.000397
vn 0.981540 -0.191258 0.000397
vn 0.955572 -0.294756 0.000269
vn 0.901729 0.432302 -0.000043
vn 0.901729 0.432302 -0.000043
vn 0.901729 0.432302 -0.000043
vn 0.901729 0.432302 -0.000043
vn -0.981835 -0.189735 0.000748
vn -0.942448 -0.334352 0.000613
vn -0.942435 -0.334388 0.000613
vn -0.981835 -0.189735 0.000748
vn -0.942448 -0.334352 0.000613
vn -0.912484 -0.409113 0.000535
vn -0.912484 -0.409113 0.000535
vn -0.942435 -0.334388 0.000613
vn -0.869297 0.494289 0.000192
vn -0.869297 0.494289 0.000192
vn -0.869297 0.494289 0.000192
vn -0.869297 0.494289 0.000192
s off
g poigné1 polySurface2 Milieu
usemtl lambert3SG
f 96/111/269 95/112/270 97/113/271 98/114/272
f 100/115/273 99/116/274 95/112/275 96/111/276
f 91/117/277 92/118/278 97/113/279 95/119/280
f 92/118/281 90/120/282 98/114/283 97/113/284
f 90/120/285 89/121/286 96/122/287 98/114/288
f 94/123/289 93/124/290 99/125/291 100/126/292
f 93/124/293 91/117/294 95/119/295 99/125/296
f 89/121/297 94/123/298 100/126/299 96/122/300
g default1
v 0.594334 3.705078 0.430862
v 0.014245 3.837562 0.482813
v 0.231394 3.384625 0.482843
v 0.005131 2.651102 0.482955
v 0.175644 3.098518 0.483062
v 0.011569 2.545791 0.431390
v 0.125786 2.429926 0.431792
v -0.214694 2.579661 0.432946
v -0.504106 2.970519 0.432073
v -0.105239 2.421571 0.432151
v -0.199501 3.107499 0.483242
v -0.627910 3.326448 0.431083
v -0.250581 3.371826 0.482851
v -0.695406 3.709606 0.430966
v -0.570697 3.704373 0.430874
v 0.223385 2.553142 0.432161
v 0.467176 2.883737 0.431654
v 0.664600 3.330923 0.431044
v 0.708675 3.707592 0.430941
v -0.322841 3.932143 0.430860
v 0.009399 3.988307 0.430938
v -0.086695 4.129095 0.430938
v -0.559906 3.827623 0.430782
v 0.337271 3.949931 0.430860
v 0.112786 4.124025 0.430938
v 0.592763 3.830692 0.430782
vt 0.431983 0.825036
vt 0.256941 0.863152
vt 0.316330 0.729142
vt 0.214315 0.521456
vt 0.212205 0.482609
vt 0.240131 0.445487
vt 0.290610 0.639162
vt 0.057958 0.625764
vt 0.144774 0.497517
vt 0.176192 0.450306
vt 0.156254 0.659737
vt 0.034637 0.750720
vt 0.152761 0.747147
vt 0.038651 0.878346
vt 0.075556 0.867781
vt 0.276237 0.475104
vt 0.371511 0.561648
vt 0.450174 0.704658
vt 0.467048 0.826255
vt 0.261830 0.911428
vt 0.087693 0.904665
vt 0.163200 0.918805
vt 0.357616 0.900463
vt 0.291414 0.953748
vt 0.432360 0.864199
vt 0.246113 0.960609
vn 0.091395 0.033996 0.995234
vn 0.002610 0.175357 0.984501
vn 0.112373 -0.003239 0.993661
vn -0.000225 -0.144111 0.989561
vn 0.003785 -0.144025 0.989567
vn 0.131179 -0.106250 0.985649
vn 0.123085 -0.055889 0.990821
vn -0.132642 -0.062182 0.989212
vn -0.124821 -0.090555 0.988038
vn -0.135928 -0.117631 0.983711
vn -0.134204 -0.062805 0.988961
vn -0.121782 -0.010687 0.992499
vn -0.132642 -0.062182 0.989212
vn -0.134204 -0.062805 0.988961
vn -0.118706 0.007605 0.992900
vn -0.103663 0.016243 0.994480
vn -0.121782 -0.010687 0.992499
vn -0.118706 0.007605 0.992900
vn -0.097473 0.037548 0.994530
vn -0.134204 -0.062805 0.988961
vn -0.135928 -0.117631 0.983711
vn 0.003785 -0.144025 0.989567
vn -0.000225 -0.144111 0.989561
vn -0.097473 0.037548 0.994530
vn -0.118706 0.007605 0.992900
vn 0.002610 0.175357 0.984501
vn 0.123085 -0.055889 0.990821
vn 0.131179 -0.106250 0.985649
vn 0.110429 -0.082772 0.990431
vn 0.118814 -0.060314 0.991083
vn 0.112373 -0.003239 0.993661
vn 0.123085 -0.055889 0.990821
vn 0.118814 -0.060314 0.991083
vn 0.112186 -0.014938 0.993575
vn 0.095732 0.018464 0.995236
vn 0.091395 0.033996 0.995234
vn 0.112373 -0.003239 0.993661
vn 0.112186 -0.014938 0.993575
vn -0.001631 0.130267 0.991478
vn -0.097473 0.037548 0.994530
vn 0.002610 0.175357 0.984501
vn -0.000685 0.000807 0.999999
vn -0.097473 0.037548 0.994530
vn -0.000269 0.000160 1.000000
vn 0.000260 0.000122 1.000000
vn 0.000251 0.000107 1.000000
vn -0.001631 0.130267 0.991478
vn 0.091395 0.033996 0.995234
vn 0.000603 0.000641 1.000000
vn 0.000260 0.000122 1.000000
vn 0.091395 0.033996 0.995234
vn 0.091395 0.033996 0.995234
vn -0.001631 0.130267 0.991478
vn 0.002610 0.175357 0.984501
vn -0.000269 0.000160 1.000000
vn -0.097473 0.037548 0.994530
vn -0.001631 0.130267 0.991478
vn -0.000258 0.000143 1.000000
s off
g poigné1 polySurface3 Interieur
usemtl lambert4SG
f 101/127/301 102/128/302 103/129/303
f 104/130/304 106/131/305 107/132/306 105/133/307
f 109/134/308 108/135/309 110/136/310 111/137/311
f 112/138/312 109/134/313 111/137/314 113/139/315
f 114/140/316 112/138/317 113/139/318 115/141/319
f 111/137/320 110/136/321 106/131/322 104/130/323
f 115/141/324 113/139/325 102/128/326
f 105/133/327 107/132/328 116/142/329 117/143/330
f 103/129/331 105/133/332 117/143/333 118/144/334
f 119/145/335 101/127/336 103/129/337 118/144/338
f 121/146/339 115/141/340 102/128/341
f 123/147/342 115/141/343 120/148/344
f 124/149/345 125/150/346 121/146/347 101/127/348
f 126/151/349 124/149/350 101/127/351
f 101/127/352 121/146/353 102/128/354
f 120/148/355 115/141/356 121/146/357 122/152/358
